<svg xmlns="http://www.w3.org/2000/svg" width="205.856" height="79.212" viewBox="0 0 205.856 79.212"><path d="M15.224 34.646c-.245-3.851-3.36-4.48-5.741-4.48-2.59 0-5.181 1.015-5.181 3.745 0 6.546 14.001 2.521 14.001 11.412 0 3.85-3.08 6.65-8.891 6.65-2.38 0-8.541-.735-8.856-7.281h2.94c.14 3.746 3.115 4.9 6.125 4.9 3.185 0 5.706-1.085 5.706-4.025 0-6.65-14.001-2.45-14.001-11.481 0-4.375 4.235-6.23 8.366-6.23 2.766 0 8.121.875 8.436 6.791h-2.904zm22.644-6.441h2.835v15.017c0 5.776-3.71 8.751-9.066 8.751-5.426 0-9.066-2.975-9.066-8.751V28.205h2.905v14.947c0 4.235 2.52 6.266 6.161 6.266 3.885 0 6.23-2.03 6.23-6.266V28.205zm8.573 23.347V28.205h7.876c5.041 0 8.261 2.38 8.261 7.071 0 4.516-3.291 7.281-8.226 7.281h-5.005v8.996h-2.906zm7.736-11.376c3.22 0 5.391-1.61 5.391-4.901 0-3.29-2.1-4.62-5.67-4.62h-4.551v9.521h4.83zm13.194 11.376V28.205h7.876c5.041 0 8.261 2.38 8.261 7.071 0 4.516-3.291 7.281-8.226 7.281h-5.005v8.996h-2.906zm7.736-11.376c3.22 0 5.391-1.61 5.391-4.901 0-3.29-2.1-4.62-5.67-4.62h-4.551v9.521h4.83zm13.194 11.376V28.205h2.905v20.862h10.817v2.485H88.301zm19.88 0v-9.486L99.57 28.205h3.15l6.966 11.656 6.966-11.656h3.045l-8.61 13.862v9.486h-2.906zm13.369-11.796c0-7.561 4.41-12.181 11.446-12.181s11.446 4.621 11.446 12.181c0 7.631-4.41 12.251-11.446 12.251s-11.446-4.62-11.446-12.251zm18.167 0c0-5.215-2.311-8.366-6.721-8.366-4.411 0-6.721 3.15-6.721 8.366 0 5.216 2.31 8.331 6.721 8.331s6.721-3.115 6.721-8.331zm24.255 11.796L153.435 35.17v16.382h-4.654V27.96h4.865l10.711 16.767V27.96h4.655v23.592h-5.04zm23.099-39.323l4.33-2.5c8.491 7.169 13.889 17.887 13.889 29.87 0 12.066-5.471 22.851-14.063 30.02l-4.341-2.506c8.348-6.29 13.755-16.281 13.755-27.514 0-11.15-5.33-21.073-13.57-27.37zm-51.823 12.307c5.598-11.459 17.37-19.373 30.959-19.373a34.215 34.215 0 0 1 15.798 3.853l4.685-2.705A38.895 38.895 0 0 0 166.208.514c-16.247 0-30.175 9.914-36.072 24.021h5.112zm30.959 49.497c-13.449 0-25.115-7.755-30.78-19.024h-5.144c5.98 13.921 19.812 23.673 35.924 23.673 7.424 0 14.365-2.07 20.276-5.665l-4.71-2.719a34.213 34.213 0 0 1-15.566 3.735z" fill="#0069B4"/></svg>